<?xml version="1.0" encoding="utf-8"?>
<!-- Generator: Adobe Illustrator 21.0.2, SVG Export Plug-In . SVG Version: 6.00 Build 0)  -->
<svg version="1.1" xmlns="http://www.w3.org/2000/svg" xmlns:xlink="http://www.w3.org/1999/xlink" x="0px" y="0px"
	 viewBox="0 0 348.2 58.5" style="enable-background:new 0 0 348.2 58.5;" xml:space="preserve">
<style type="text/css">
	.st0{display:none;fill:#808080;}
	.st1{opacity:0.68;fill:url(#BG_color_3_);}
	.st2{fill:none;}
	.st3{fill:#F2F2F2;}
	.st4{display:none;}
	.st5{display:inline;fill:#666666;}
	.st6{display:inline;fill:none;}
	.st7{opacity:0.65;fill:#DFDFDF;}
	.st8{display:inline;fill:#808080;}
	.st9{display:inline;}
	.st10{fill:#FFFFFF;}
	.st11{opacity:0.65;}
	.st12{fill:#DFDFDF;}
	.st13{fill:#666666;}
	.st14{fill:#23256E;}
	.st15{fill:#333333;}
	.st16{fill:#858585;}
	.st17{fill:#22337C;}
	.st18{fill:#7B7CA8;}
	.st19{fill:#151AB2;}
	.st20{display:inline;opacity:0.1;enable-background:new    ;}
	.st21{fill:#FF0000;}
</style>
<g id="jumbo_img">
	<g id="jumbotron_photo">
	</g>
</g>
<g id="foot">
</g>
<g id="jumbotron" class="st4">
</g>
<g id="content">
</g>
<g id="Header">
</g>
<g id="Logos">
	<g>
		<g>
			<rect x="-1.1" y="0" class="st2" width="337.6" height="58.5"/>
			<path class="st15" d="M6.6,37.3c0.1,6.3,3.2,10.8,8.5,10.8c4.9,0,6.5-2.6,7.4-4.8H28c-1.2,4-4.6,9.3-13.1,9.3
				c-9.7,0-13.7-7.9-13.7-15.9c0-9.2,4.6-16.5,14-16.5c10,0,13.3,8,13.3,14.6c0,1,0,1.8-0.1,2.6H6.6z M23.1,33.5
				c-0.1-5.1-2.6-9.2-7.9-9.2c-5.5,0-7.9,3.8-8.4,9.2H23.1z"/>
			<path class="st15" d="M31.7,20.8h5.4v-9.2h5.3v9.2h6.8v4.3h-6.8v18.1c0,3.1,0.7,4.6,3.5,4.6c0.7,0,1.8-0.1,2.7-0.2v4
				c-1.3,0.5-3.1,0.5-4.6,0.5c-4.8,0-6.9-2.5-6.9-7.6V25.2h-5.4V20.8z"/>
			<path class="st15" d="M58.3,42.9c0.9,3.4,3.4,5.4,7.6,5.4c4.5,0,6.3-2,6.3-4.8c0-2.9-1.4-4.3-7.3-5.7C56,35.7,54.1,33,54.1,28.8
				c0-4.3,3.2-8.7,11.2-8.7c8,0,11.3,4.6,11.7,8.9h-5.1c-0.5-2-2-4.8-6.7-4.8c-4.3,0-5.7,2.1-5.7,4.1c0,2.3,1.3,3.5,7,4.8
				c9.4,2.3,11.3,5.4,11.3,10c0,5.4-4.3,9.4-12,9.4c-8,0-12-4-12.8-9.6H58.3z"/>
			<path class="st13" d="M100,28.8c0-2.7,0-5.5-0.1-8h5.1c0.1,0.9,0.2,3.2,0.2,4.8c1.4-2.7,4.1-5.5,9-5.5c4.4,0,7.4,2.2,8.6,5.6
				c1.6-2.9,4.6-5.6,9.8-5.6c5.1,0,9.8,3,9.8,11.4v20.3h-5.3V32.1c0-3.5-1.3-7.3-6.1-7.3c-5.1,0-7.3,3.8-7.3,9.3v17.8h-5.3V32.2
				c0-4-1.1-7.5-6-7.5c-4.9,0-7.3,4-7.3,9.9v17.2H100V28.8z"/>
			<path class="st13" d="M154.8,37.3c0.1,6.3,3.2,10.8,8.5,10.8c4.9,0,6.5-2.6,7.4-4.8h5.4c-1.2,4-4.6,9.3-13.1,9.3
				c-9.7,0-13.7-7.9-13.7-15.9c0-9.2,4.6-16.5,14-16.5c10,0,13.3,8,13.3,14.6c0,1,0,1.8-0.1,2.6H154.8z M171.3,33.5
				c-0.1-5.1-2.6-9.2-7.9-9.2c-5.5,0-7.9,3.8-8.4,9.2H171.3z"/>
			<path class="st13" d="M209.7,7v36.1c0,2.9,0,5.7,0.1,8.7h-5.1c-0.2-0.8-0.3-3.2-0.3-4.4c-1.5,3.2-4.6,5.1-9.7,5.1
				c-8,0-12.9-6.5-12.9-15.9c0-9.5,5.3-16.5,13.9-16.5c5.5,0,7.9,2.2,8.7,4V7H209.7z M195.7,48c7.2,0,8.9-5.4,8.9-12.2
				c0-6.9-1.5-11.2-8.4-11.2c-5.5,0-8.9,4.3-8.9,11.8C187.3,43.9,190.8,48,195.7,48z"/>
			<path class="st13" d="M218.8,13.6V7h5.4v6.7H218.8z M218.8,20.8h5.4v31h-5.4V20.8z"/>
			<path class="st13" d="M257.7,42.3c-1.3,5.3-4.9,10.2-12.8,10.2c-8.5,0-13.8-6.1-13.8-16.1c0-8.7,4.9-16.4,14.2-16.4
				c8.9,0,12,6.4,12.4,10.3h-5.3c-0.7-3.1-2.7-5.9-7.2-5.9c-5.4,0-8.5,4.7-8.5,11.7c0,7.1,3,11.8,8.4,11.8c3.8,0,6.1-2.1,7.4-5.7
				H257.7z"/>
			<path class="st13" d="M287.3,45c0,2.9,0.2,5.9,0.4,6.8h-5.1c-0.2-0.7-0.4-2.1-0.5-4c-1.1,2-3.6,4.8-9.6,4.8
				c-7.3,0-10.4-4.8-10.4-9.5c0-6.9,5.4-10.1,14.7-10.1h5.3v-2.6c0-2.7-0.9-6-6.7-6c-5.1,0-6,2.6-6.6,4.9h-5.2
				c0.4-4.3,3.1-9.2,12-9.2c7.6,0,11.8,3.1,11.8,10.1V45z M282,36.7h-5c-6.2,0-9.5,1.7-9.5,6c0,3.2,2.2,5.6,6,5.6
				c7.5,0,8.4-5,8.4-10.6V36.7z"/>
			<path class="st13" d="M296.5,51.8V7h5.4v44.8H296.5z"/>
		</g>
		<g>
			<rect x="326.8" y="17.4" class="st17" width="11.7" height="28.7"/>
			
				<rect x="326.8" y="17.4" transform="matrix(6.123234e-17 -1 1 6.123234e-17 300.8145 364.4556)" class="st17" width="11.7" height="28.7"/>
		</g>
	</g>
</g>
<g id="grid" class="st4">
	<g id="_x31_2_Col_Grid" class="st20">
	</g>
	<g id="Guides" class="st9">
	</g>
</g>
</svg>
